<svg width="35" height="47" viewBox="0 0 35 47" xmlns="http://www.w3.org/2000/svg">
<path d="M34.1652 33.4487C32.6533 38.8076 26.1623 44.2062 23.1058 46.2137C27.5296 42.3298 26.1156 36.0708 24.8557 33.4487C25.7516 33.4487 26.9089 35.0056 27.3756 35.784C32.4853 34.0633 27.4456 18.208 27.3756 18.6997C27.3056 19.1913 23.2458 26.1971 24.1557 23.3702C25.0657 20.5433 18.0661 10.3419 15.8962 10.3419C14.1603 10.3419 11.0198 15.9137 9.66653 18.6997L11.5564 22.2026C6.90868 21.5635 4.06683 14.9305 3.22688 11.6939C6.47003 7.6174 13.5443 -0.424939 15.8962 0.0175331C18.836 0.570623 28.2855 12.8001 28.2855 12.6771C28.2855 12.5542 31.0154 10.3419 31.0154 10.3419C31.0154 10.3419 33.2786 16.5283 34.1652 19.1913C34.7952 21.7109 35.6771 28.0899 34.1652 33.4487Z"/>
<path d="M12.0025 46.3011C15.5251 47.606 20.8794 46.7894 23.1058 46.2137C19.3409 46.6907 16.3879 43.8146 15.3925 42.3211C15.0662 42.7042 15.5082 43.7658 15.77 44.2488C12.9551 45.8067 5.9967 37.8787 6.29485 38.0278C6.59301 38.1768 11.9568 38.9923 10.0576 38.3519C8.15846 37.7116 5.04943 31.0045 5.83956 30.0768C6.47167 29.3347 10.7055 30.021 12.7433 30.4569L13.9979 32.5404C15.3359 30.3207 12.6919 26.6905 11.2027 25.1529C7.76093 25.0549 0.724548 25.1508 0.113548 26.3174C-0.650202 27.7756 2.6915 36.2685 2.62334 36.2237C2.55517 36.179 0.334129 36.5404 0.334129 36.5404C0.334129 36.5404 2.94108 39.7607 4.09518 41.1094C5.2632 42.2962 8.47991 44.9961 12.0025 46.3011Z"/>
<defs>
<linearGradient id="paint0_linear_187_350" x1="6.63418" y1="26.6319" x2="24.7632" y2="48.8594" gradientUnits="userSpaceOnUse">
<stop/>
</linearGradient>
<linearGradient id="paint1_linear_187_350" x1="6.63418" y1="26.6319" x2="24.7632" y2="48.8594" gradientUnits="userSpaceOnUse">
<stop/>
</linearGradient>
</defs>
</svg>
