<?xml version="1.0" encoding="utf-8"?>
<!-- Generator: Adobe Illustrator 26.0.3, SVG Export Plug-In . SVG Version: 6.00 Build 0)  -->
<svg version="1.1" id="Layer_1" xmlns="http://www.w3.org/2000/svg" xmlns:xlink="http://www.w3.org/1999/xlink" x="0px" y="0px"
	 viewBox="0 0 500 135.25" style="enable-background:new 0 0 500 135.25;" xml:space="preserve">
<style type="text/css">
	.st0{fill:#FFB600;}
	.st1{fill:#FFFFFF;}
</style>
<g>
	<g>
		<path d="M209.69,47.78V30.66h49.32v17.11h-16.82v32.35c0,2.59,0.55,4.46,1.65,5.61c1.1,1.15,2.95,1.72,5.54,1.72h10.5v17.11
			h-16.82c-14.09,0-21.14-7.05-21.14-21.14V47.78H209.69z"/>
		<path d="M455.28,87.89c2.88,2.01,6.57,3.02,11.07,3.02c4.31,0,7.72-0.7,10.21-2.09c2.49-1.39,3.74-3.38,3.74-5.97
			c0-1.92-0.58-3.36-1.72-4.31c-1.15-0.96-2.78-1.65-4.89-2.09c-2.11-0.43-5.56-0.93-10.35-1.51c-6.52-0.86-11.94-1.97-16.25-3.31
			c-4.31-1.34-7.76-3.45-10.35-6.33c-2.59-2.88-3.88-6.71-3.88-11.5s1.32-9.04,3.95-12.73c2.64-3.69,6.35-6.54,11.14-8.56
			c4.79-2.01,10.3-3.02,16.54-3.02c10.07,0.1,18.19,2.25,24.37,6.47c6.18,4.22,9.51,10.07,9.99,17.54h-19.27
			c-0.29-2.78-1.75-5.06-4.39-6.83s-6.01-2.66-10.14-2.66c-3.83,0-6.92,0.72-9.27,2.16c-2.35,1.44-3.52,3.36-3.52,5.75
			c0,1.73,0.62,3.02,1.87,3.88c1.25,0.86,2.88,1.49,4.89,1.87s5.37,0.82,10.07,1.29c9.97,1.15,17.61,3.28,22.93,6.4
			c5.32,3.11,7.98,8.46,7.98,16.03c0,4.79-1.41,9.01-4.24,12.65c-2.83,3.64-6.76,6.45-11.79,8.41c-5.03,1.97-10.86,2.95-17.47,2.95
			c-10.26,0-18.6-2.28-25.02-6.83c-6.42-4.55-9.83-10.76-10.21-18.62h19.27C450.82,83.24,452.41,85.88,455.28,87.89z"/>
	</g>
	<path d="M421.21,64.45v40.13h-20.29V65.61c0-12.75-4.98-19.13-14.95-19.13c-5.27,0-9.34,1.77-12.21,5.32
		c-2.88,3.55-4.32,8.54-4.32,14.95v37.82h-20.27V30.66h20.27v8.39c2.43-2.79,5.3-4.98,8.63-6.59c3.64-1.77,8.14-2.66,13.52-2.66
		c8.63,0,15.71,2.68,21.29,8.05C418.42,43.22,421.21,52.09,421.21,64.45z"/>
	<polygon points="310.62,67.63 340.39,104.57 318.42,104.57 288.64,67.61 318.42,30.66 340.39,30.66 	"/>
	<rect x="268.35" y="30.66" width="20.29" height="73.91"/>
</g>
<path class="st0" d="M147.99,32.91V51.7L97.87,72.45v55.61l-17.37,7.19V79.65l-4.99,2.07c-4.87,2.02-8.04,6.76-8.04,12.03v41.51
	l-17.35-7.19V93.74c0-12.29,7.4-23.36,18.75-28.06L147.99,32.91z"/>
<path class="st0" d="M147.99,0v18.81L45.9,61.09c-7.44,3.08-15.8,3.08-23.24,0L0,51.7V32.91l29.3,12.13c3.19,1.32,6.78,1.32,9.97,0
	l12.03-4.99L0,18.81V0.02l74,30.64L147.99,0z"/>
</svg>
