<?xml version="1.0" encoding="UTF-8"?>
<svg id="Layer_2" data-name="Layer 2" xmlns="http://www.w3.org/2000/svg" viewBox="0 0 989.44 609.62">
  <defs>
    <style>
      .cls-1 {
        fill: #e72953;
        stroke-width: 0px;
      }
    </style>
  </defs>
  <g id="Layer_4" data-name="Layer 4">
    <g>
      <path class="cls-1" d="M512.15,20.77c-42.65,42.91-74.25,74.43-118.2,118.69-8.57,8.63-20.25,13.5-32.42,13.5h-209.32s0-140.78,0-140.78c0-6.73,5.45-12.18,12.18-12.18h339.12c10.83,0,16.27,13.09,8.64,20.77Z"/>
      <path class="cls-1" d="M152.22,411.73V152.96H12.18c-6.73,0-12.18,5.45-12.18,12.18v273.35c0,12.11,4.81,23.73,13.38,32.29l125.47,125.47c8.56,8.56,20.18,13.38,32.29,13.38h197.24c6.73,0,12.18-5.45,12.18-12.18v-140.04h-182.67c-25.22,0-45.67-20.45-45.67-45.67Z"/>
      <path class="cls-1" d="M380.55,457.4h152.22v-152.22h-140.04c-6.73,0-12.18,5.45-12.18,12.18v140.04Z"/>
      <path class="cls-1" d="M837.22,305.18v106.55c0,25.22-20.45,45.67-45.67,45.67h-258.78v140.04c0,6.73,5.45,12.18,12.18,12.18h273.35c12.11,0,23.73-4.81,32.29-13.38l125.47-125.47c8.56-8.56,13.38-20.18,13.38-32.29v-121.13c0-6.73-5.45-12.18-12.18-12.18h-140.04Z"/>
      <path class="cls-1" d="M685,305.18v-106.55c0-25.22,20.45-45.67,45.67-45.67h246.6c6.73,0,12.18-5.45,12.18-12.18V12.91c0-6.73-5.45-12.18-12.18-12.18h-273.35c-12.11,0-23.73,4.81-32.29,13.38l-125.47,125.47c-8.56,8.56-13.38,20.18-13.38,32.29v133.31h152.22Z"/>
    </g>
  </g>
</svg>