<?xml version="1.0" encoding="UTF-8"?>
<svg id="Layer_2" data-name="Layer 2" xmlns="http://www.w3.org/2000/svg" viewBox="0 0 1243.84 200.24">
  <defs>
    <style>
      .cls-1 {
        fill: #e72953;
      }

      .cls-1, .cls-2 {
        stroke-width: 0px;
      }

      .cls-2 {
        fill: #eef0f2;
      }
    </style>
  </defs>
  <g id="Layer_4" data-name="Layer 4">
    <g>
      <g>
        <path class="cls-1" d="M168.23,6.82c-14.01,14.1-24.39,24.45-38.82,38.98-2.82,2.84-6.65,4.43-10.65,4.43H50s0-46.24,0-46.24c0-2.21,1.79-4,4-4h111.39c3.56,0,5.35,4.3,2.84,6.82Z"/>
        <path class="cls-1" d="M50,135.24V50.24H4c-2.21,0-4,1.79-4,4v89.79c0,3.98,1.58,7.79,4.39,10.61l41.21,41.21c2.81,2.81,6.63,4.39,10.61,4.39h64.79c2.21,0,4-1.79,4-4v-46h-60c-8.28,0-15-6.72-15-15Z"/>
        <path class="cls-1" d="M125,150.24h50v-50h-46c-2.21,0-4,1.79-4,4v46Z"/>
        <path class="cls-1" d="M275,100.24v35c0,8.28-6.72,15-15,15h-85v46c0,2.21,1.79,4,4,4h89.79c3.98,0,7.79-1.58,10.61-4.39l41.21-41.21c2.81-2.81,4.39-6.63,4.39-10.61v-39.79c0-2.21-1.79-4-4-4h-46Z"/>
        <path class="cls-1" d="M225,100.24v-35c0-8.28,6.72-15,15-15h81c2.21,0,4-1.79,4-4V4.24c0-2.21-1.79-4-4-4h-89.79c-3.98,0-7.79,1.58-10.61,4.39l-41.21,41.21c-2.81,2.81-4.39,6.63-4.39,10.61v43.79h50Z"/>
      </g>
      <path class="cls-2" d="M491.83,80.52c-.87-3.01-2.09-5.69-3.65-8.02-1.57-2.33-3.48-4.31-5.73-5.94s-4.81-2.88-7.68-3.75c-2.87-.87-6.04-1.3-9.5-1.3-6.48,0-12.17,1.61-17.06,4.83-4.89,3.22-8.7,7.89-11.43,14.03s-4.09,13.61-4.09,22.45,1.34,16.35,4.03,22.54c2.68,6.19,6.48,10.91,11.39,14.15,4.91,3.24,10.71,4.86,17.4,4.86,6.07,0,11.26-1.08,15.57-3.25,4.31-2.17,7.62-5.23,9.91-9.2,2.29-3.96,3.44-8.65,3.44-14.06l5.45.81h-32.7v-20.19h53.07v15.98c0,11.15-2.35,20.71-7.06,28.7-4.71,7.99-11.19,14.14-19.45,18.46-8.26,4.31-17.71,6.47-28.36,6.47-11.89,0-22.33-2.63-31.33-7.9-9-5.26-16.01-12.76-21.02-22.48-5.02-9.72-7.52-21.27-7.52-34.65,0-10.28,1.5-19.45,4.49-27.52,2.99-8.07,7.19-14.91,12.6-20.53,5.41-5.62,11.7-9.89,18.89-12.82s14.97-4.4,23.35-4.4c7.18,0,13.87,1.04,20.06,3.13,6.19,2.08,11.69,5.03,16.5,8.82,4.81,3.8,8.74,8.31,11.8,13.53,3.05,5.22,5.02,10.97,5.88,17.25h-27.25ZM566.48,168.14c-6.07,0-11.48-1.06-16.22-3.19-4.75-2.13-8.49-5.28-11.24-9.47-2.75-4.19-4.12-9.42-4.12-15.7,0-5.28.97-9.72,2.91-13.31,1.94-3.59,4.58-6.48,7.93-8.67,3.34-2.19,7.15-3.84,11.43-4.95,4.27-1.11,8.76-1.9,13.47-2.35,5.53-.58,9.99-1.12,13.38-1.64,3.39-.52,5.84-1.29,7.37-2.32,1.53-1.03,2.29-2.56,2.29-4.58v-.37c0-3.92-1.23-6.96-3.69-9.1-2.46-2.15-5.94-3.22-10.43-3.22-4.75,0-8.53,1.04-11.33,3.13-2.81,2.08-4.67,4.7-5.57,7.83l-24.4-1.98c1.24-5.78,3.67-10.79,7.31-15.02,3.63-4.23,8.33-7.49,14.09-9.78,5.76-2.29,12.44-3.44,20.03-3.44,5.28,0,10.35.62,15.2,1.86,4.85,1.24,9.16,3.16,12.94,5.76,3.78,2.6,6.76,5.94,8.95,10,2.19,4.07,3.28,8.93,3.28,14.58v64.16h-25.02v-13.19h-.74c-1.53,2.97-3.57,5.58-6.13,7.83-2.56,2.25-5.64,4.01-9.23,5.26s-7.74,1.89-12.45,1.89ZM574.04,149.94c3.88,0,7.31-.77,10.28-2.32,2.97-1.55,5.3-3.64,7-6.29,1.69-2.64,2.54-5.64,2.54-8.98v-10.09c-.83.54-1.95,1.02-3.38,1.46-1.42.43-3.02.83-4.8,1.18-1.78.35-3.55.66-5.33.93s-3.39.51-4.83.71c-3.1.45-5.8,1.18-8.11,2.17-2.31.99-4.11,2.32-5.39,3.99-1.28,1.67-1.92,3.75-1.92,6.22,0,3.59,1.31,6.33,3.93,8.21,2.62,1.88,5.95,2.82,10,2.82ZM640.02,166.35v-95.12h25.14v16.78h1.11c1.98-5.57,5.28-9.97,9.91-13.19,4.62-3.22,10.16-4.83,16.6-4.83s12.08,1.62,16.66,4.86c4.58,3.24,7.64,7.63,9.16,13.16h.99c1.94-5.45,5.46-9.82,10.56-13.1,5.1-3.28,11.14-4.92,18.11-4.92,8.88,0,16.09,2.82,21.64,8.45,5.55,5.64,8.33,13.61,8.33,23.93v63.97h-26.32v-58.77c0-5.28-1.4-9.25-4.21-11.89-2.81-2.64-6.31-3.96-10.53-3.96-4.79,0-8.53,1.52-11.21,4.55-2.68,3.03-4.03,7.03-4.03,11.98v58.09h-25.58v-59.32c0-4.67-1.33-8.38-3.99-11.15s-6.16-4.15-10.5-4.15c-2.93,0-5.56.73-7.89,2.2-2.33,1.46-4.18,3.51-5.54,6.13-1.36,2.62-2.04,5.69-2.04,9.2v57.1h-26.38ZM841.87,168.21c-9.78,0-18.2-1.99-25.24-5.98-7.04-3.98-12.46-9.64-16.26-16.97s-5.7-16.01-5.7-26.04,1.9-18.37,5.7-25.76c3.8-7.39,9.16-13.15,16.07-17.28,6.91-4.13,15.04-6.19,24.37-6.19,6.28,0,12.13,1,17.56,3,5.43,2,10.18,5.01,14.24,9.01,4.07,4,7.23,9.03,9.5,15.08,2.27,6.05,3.41,13.12,3.41,21.21v7.25h-80.32v-16.35h55.49c0-3.8-.83-7.16-2.48-10.09s-3.93-5.23-6.84-6.9c-2.91-1.67-6.29-2.51-10.12-2.51s-7.55.92-10.62,2.76c-3.08,1.84-5.48,4.29-7.21,7.37-1.73,3.08-2.62,6.49-2.66,10.25v15.54c0,4.7.88,8.77,2.63,12.2,1.76,3.43,4.24,6.07,7.46,7.93,3.22,1.86,7.04,2.79,11.46,2.79,2.93,0,5.61-.41,8.05-1.24,2.44-.82,4.52-2.06,6.26-3.71,1.73-1.65,3.05-3.67,3.96-6.07l24.4,1.61c-1.24,5.86-3.77,10.97-7.59,15.33-3.82,4.36-8.73,7.74-14.74,10.16-6.01,2.41-12.93,3.62-20.78,3.62ZM981.36,98.35l-24.15,1.48c-.41-2.06-1.3-3.93-2.66-5.6s-3.15-3.01-5.36-4.03c-2.21-1.01-4.84-1.52-7.89-1.52-4.09,0-7.54.86-10.34,2.57-2.81,1.71-4.21,3.99-4.21,6.84,0,2.27.91,4.19,2.72,5.76,1.81,1.57,4.93,2.83,9.35,3.78l17.22,3.47c9.25,1.9,16.14,4.95,20.68,9.16,4.54,4.21,6.81,9.74,6.81,16.6,0,6.24-1.83,11.71-5.48,16.41-3.65,4.71-8.65,8.37-14.99,10.99-6.34,2.62-13.64,3.93-21.89,3.93-12.59,0-22.61-2.63-30.07-7.89s-11.82-12.44-13.1-21.52l25.95-1.36c.79,3.84,2.68,6.76,5.7,8.76,3.01,2,6.88,3,11.58,3s8.35-.9,11.18-2.69,4.26-4.12,4.31-6.97c-.04-2.39-1.05-4.37-3.04-5.91-1.98-1.55-5.04-2.73-9.16-3.56l-16.47-3.28c-9.29-1.86-16.19-5.08-20.71-9.66-4.52-4.58-6.78-10.42-6.78-17.52,0-6.11,1.66-11.37,4.99-15.79,3.32-4.42,8.01-7.82,14.06-10.22,6.05-2.39,13.14-3.59,21.27-3.59,12.01,0,21.48,2.54,28.39,7.62,6.92,5.08,10.95,11.99,12.11,20.75ZM1012.92,58.97c-3.92,0-7.28-1.31-10.06-3.93-2.79-2.62-4.18-5.77-4.18-9.44s1.39-6.76,4.18-9.38c2.79-2.62,6.14-3.93,10.06-3.93s7.28,1.31,10.06,3.93c2.79,2.62,4.18,5.75,4.18,9.38s-1.39,6.82-4.18,9.44c-2.79,2.62-6.14,3.93-10.06,3.93ZM999.67,166.35v-95.12h26.38v95.12h-26.38ZM1081.63,167.9c-7.23,0-13.76-1.87-19.6-5.6-5.84-3.74-10.47-9.25-13.87-16.53s-5.11-16.24-5.11-26.85,1.76-19.97,5.26-27.22c3.51-7.25,8.19-12.67,14.03-16.29,5.84-3.61,12.25-5.42,19.23-5.42,5.32,0,9.77.9,13.34,2.69,3.57,1.8,6.46,4.03,8.67,6.69,2.21,2.66,3.89,5.27,5.05,7.83h.8v-47.68h26.32v126.83h-26.01v-15.23h-1.11c-1.24,2.64-2.98,5.25-5.23,7.83s-5.16,4.72-8.73,6.41c-3.57,1.69-7.92,2.54-13.04,2.54ZM1089.99,146.9c4.25,0,7.85-1.16,10.81-3.5,2.95-2.33,5.22-5.6,6.81-9.81,1.59-4.21,2.38-9.14,2.38-14.8s-.79-10.57-2.35-14.74c-1.57-4.17-3.84-7.39-6.81-9.66-2.97-2.27-6.59-3.41-10.84-3.41s-7.99,1.18-10.96,3.53c-2.97,2.35-5.22,5.62-6.75,9.78-1.53,4.17-2.29,9-2.29,14.49s.77,10.41,2.32,14.65c1.55,4.23,3.8,7.53,6.75,9.91,2.95,2.38,6.6,3.56,10.93,3.56ZM1200.19,168.21c-9.78,0-18.2-1.99-25.24-5.98-7.04-3.98-12.46-9.64-16.26-16.97s-5.7-16.01-5.7-26.04,1.9-18.37,5.7-25.76c3.8-7.39,9.16-13.15,16.07-17.28,6.91-4.13,15.04-6.19,24.37-6.19,6.28,0,12.13,1,17.56,3,5.43,2,10.18,5.01,14.24,9.01,4.07,4,7.23,9.03,9.5,15.08,2.27,6.05,3.41,13.12,3.41,21.21v7.25h-80.32v-16.35h55.49c0-3.8-.83-7.16-2.48-10.09s-3.93-5.23-6.84-6.9c-2.91-1.67-6.29-2.51-10.12-2.51s-7.55.92-10.62,2.76c-3.08,1.84-5.48,4.29-7.21,7.37-1.73,3.08-2.62,6.49-2.66,10.25v15.54c0,4.7.88,8.77,2.63,12.2,1.76,3.43,4.24,6.07,7.46,7.93,3.22,1.86,7.04,2.79,11.46,2.79,2.93,0,5.61-.41,8.05-1.24,2.44-.82,4.52-2.06,6.26-3.71s3.05-3.67,3.96-6.07l24.4,1.61c-1.24,5.86-3.77,10.97-7.59,15.33-3.82,4.36-8.73,7.74-14.74,10.16-6.01,2.41-12.93,3.62-20.78,3.62Z"/>
    </g>
  </g>
</svg>